<?xml version="1.0" encoding="UTF-8" standalone="no"?>
<!-- Created with Inkscape (http://www.inkscape.org/) -->

<svg
   width="436.23306"
   height="280.23236"
   viewBox="0 0 115.42 74.144809"
   version="1.1"
   id="svg1"
   sodipodi:docname="robot logo.svg"
   inkscape:version="1.3.2 (091e20e, 2023-11-25)"
   xmlns:inkscape="http://www.inkscape.org/namespaces/inkscape"
   xmlns:sodipodi="http://sodipodi.sourceforge.net/DTD/sodipodi-0.dtd"
   xmlns="http://www.w3.org/2000/svg"
   xmlns:svg="http://www.w3.org/2000/svg">
  <sodipodi:namedview
     id="namedview1"
     pagecolor="#ffffff"
     bordercolor="#000000"
     borderopacity="0.25"
     inkscape:showpageshadow="2"
     inkscape:pageopacity="0.0"
     inkscape:pagecheckerboard="0"
     inkscape:deskcolor="#d1d1d1"
     inkscape:document-units="mm"
     inkscape:zoom="1.2930456"
     inkscape:cx="203.39577"
     inkscape:cy="171.68768"
     inkscape:window-width="1440"
     inkscape:window-height="771"
     inkscape:window-x="0"
     inkscape:window-y="25"
     inkscape:window-maximized="0"
     inkscape:current-layer="layer1" />
  <defs
     id="defs1">
    <inkscape:path-effect
       center_point="119.15022,179.78809"
       end_point="125.5895,179.78809"
       start_point="112.71094,179.78809"
       effect="mirror_symmetry"
       id="path-effect16"
       is_visible="true"
       lpeversion="1.2"
       lpesatellites=""
       mode="Y"
       discard_orig_path="false"
       fuse_paths="true"
       oposite_fuse="false"
       split_items="false"
       split_open="false"
       link_styles="false" />
    <inkscape:path-effect
       effect="fillet_chamfer"
       id="path-effect15"
       is_visible="true"
       lpeversion="1"
       nodesatellites_param="F,0,0,1,0,0,0,1 @ F,0,0,1,0,4.5827414,0,1 @ F,0,0,1,0,0,0,1 @ F,0,1,1,0,0,0,1 @ F,0,0,1,0,1.4409128,0,1 @ F,0,0,1,0,1.4347313,0,1 @ F,0,0,1,0,2.016728,0,1 @ F,0,0,1,0,0,0,1"
       radius="0"
       unit="px"
       method="auto"
       mode="F"
       chamfer_steps="1"
       flexible="false"
       use_knot_distance="true"
       apply_no_radius="true"
       apply_with_radius="true"
       only_selected="true"
       hide_knots="false" />
    <inkscape:path-effect
       effect="powerstroke"
       id="path-effect7"
       is_visible="true"
       lpeversion="1.3"
       scale_width="1"
       interpolator_type="Linear"
       interpolator_beta="0.2"
       start_linecap_type="zerowidth"
       end_linecap_type="zerowidth"
       offset_points="0.1481408,4.1455777 | 1,2.9146213"
       linejoin_type="round"
       miter_limit="4"
       not_jump="false"
       sort_points="true"
       message="&lt;b&gt;Ctrl + click&lt;/b&gt; on existing node and move it" />
    <inkscape:path-effect
       effect="powerstroke"
       id="path-effect6"
       is_visible="true"
       lpeversion="1.3"
       scale_width="1"
       interpolator_type="Linear"
       interpolator_beta="0.2"
       start_linecap_type="zerowidth"
       end_linecap_type="zerowidth"
       offset_points="0.0015541851,8.5081099 | 0.874634,4.6965624"
       linejoin_type="round"
       miter_limit="4"
       not_jump="false"
       sort_points="true"
       message="&lt;b&gt;Ctrl + click&lt;/b&gt; on existing node and move it" />
    <inkscape:path-effect
       effect="taper_stroke"
       start_shape="center | center"
       end_shape="center | center"
       id="path-effect5"
       is_visible="true"
       lpeversion="1"
       stroke_width="7.329"
       subpath="1"
       attach_start="0.2"
       end_offset="0.2"
       start_smoothing="0.5"
       end_smoothing="0.5"
       jointype="extrapolated"
       miter_limit="100" />
  </defs>
  <g
     inkscape:label="Layer 1"
     inkscape:groupmode="layer"
     id="layer1"
     style="display:inline"
     transform="translate(-29.073024,-170.66161)">
    <path
       id="path3"
       style="fill:#000000;fill-opacity:1;fill-rule:nonzero;stroke:none;stroke-width:7.329;stroke-miterlimit:3;stroke-dasharray:none;stroke-opacity:1"
       inkscape:label="second_arm"
       d="M 82.751535 175.86312 C 82.892685 176.44088 82.969609 177.0434 82.969609 177.66353 C 82.969609 180.07901 81.832346 182.23622 80.067461 183.63112 L 108.31587 192.44092 L 109.29513 189.69587 L 110.2744 186.95082 L 82.751535 175.86312 z "
       transform="translate(10.278309,4.2015313)" />
    <path
       id="path2"
       style="fill:#000000;fill-opacity:1;fill-rule:nonzero;stroke:none;stroke-width:7.329;stroke-miterlimit:3;stroke-dasharray:none;stroke-opacity:1"
       inkscape:label="first_arm"
       d="M 77.920364 183.64145 L 54.763335 206.68368 C 55.478589 206.75775 56.196476 206.86122 56.915657 207.00425 C 61.52112 207.92021 65.505778 210.28429 68.584221 213.52581 L 85.229706 189.56579 L 85.232558 189.48522 C 84.770343 189.48015 84.302559 189.43461 83.833324 189.34129 C 80.833111 188.74459 78.593324 186.44063 77.920364 183.64145 z "
       transform="rotate(-11.248451,85.395568,180.21933)" />
    <path
       id="path6"
       style="display:inline;color:#000000;fill:#000000;stroke-miterlimit:3;-inkscape-stroke:none;stroke:none;fill-opacity:1"
       d="M 85.642698 176.25765 C 82.534505 176.25765 80.035288 178.75687 80.035288 181.86506 C 80.035288 184.97326 82.534505 187.47092 85.642698 187.47092 C 88.750891 187.47092 91.24804 184.97326 91.24804 181.86506 C 91.24804 178.75687 88.750891 176.25765 85.642698 176.25765 z "
       transform="translate(-1.2083333e-6)"
       inkscape:label="joint" />
    <path
       id="path9"
       style="display:inline;color:#000000;fill:#000000;stroke-miterlimit:3;-inkscape-stroke:none"
       d="M 62.68751 214.04501 C 51.336353 214.04501 42.168711 222.97932 41.636598 234.19727 L 83.738421 234.19727 C 83.206309 222.97932 74.038667 214.04501 62.68751 214.04501 z "
       inkscape:label="base"
       transform="translate(-1.2083333e-6)" />
    <path
       style="color:#000000;fill:#000000;stroke:none;stroke-miterlimit:3;-inkscape-stroke:none"
       d="m 128.12934,188.68176 c -2.38732,-0.84061 -5.00316,0.41282 -5.84376,2.80013 l -1.1806,3.3529 -1.17995,3.35106 c -0.84062,2.38731 0.4128,5.00315 2.80013,5.84375 l 7.82588,2.7556 c 0,0 0.78623,-2.94156 -1.549,-3.79844 -1.09626,-0.40223 -2.98292,-1.26752 -4.24766,-1.86217 -0.71937,-0.33822 -1.08599,-1.2263 -0.8217,-1.97692 l 1.0392,-2.95129 1.03983,-2.95315 c 0.26431,-0.7506 1.10647,-1.21305 1.87906,-1.02596 1.35828,0.32899 3.37087,0.83664 4.47728,1.21001 2.35692,0.79535 3.58719,-1.98993 3.58719,-1.98993 z"
       id="path11"
       sodipodi:nodetypes="cccsccccc"
       inkscape:transform-center-x="-6.9568703"
       inkscape:transform-center-y="2.5738411"
       inkscape:label="arm" />
  </g>
</svg>
