<svg width="74" height="114" viewBox="0 0 74 114" fill="none" xmlns="http://www.w3.org/2000/svg">
<path d="M2 14L16 13.9134V28C32.399 28 32.399 41.8713 16 41.9134C32.399 41.9344 32.3407 55.9136 16 55.9134C32.4572 55.871 32.4572 69.9131 16 69.9134C32.3407 69.8716 32.399 83.8924 16 83.9134C32.399 83.8924 32.399 97.8713 16 97.9134V111.913L2 112" stroke="black" stroke-width="3.544" stroke-linecap="round" stroke-linejoin="round"/>
<path d="M37 28V98" stroke="black" stroke-width="7" stroke-linecap="square" stroke-linejoin="bevel"/>
<path d="M72 14L58 13.9134V28C41.601 28 41.601 41.8713 58 41.9134C41.601 41.9344 41.6593 55.9137 58 55.9134C41.5428 55.871 41.5428 69.9132 58 69.9134C41.6593 69.8716 41.601 83.8924 58 83.9134C41.601 83.8924 41.601 97.8713 58 97.9134V111.913L72 112" stroke="black" stroke-width="3.544" stroke-linecap="round" stroke-linejoin="round"/>
<path d="M19.5 6.99997C21.433 6.99997 23 5.43297 23 3.49997C23 1.56697 21.433 -3.05176e-05 19.5 -3.05176e-05C17.567 -3.05176e-05 16 1.56697 16 3.49997C16 5.43297 17.567 6.99997 19.5 6.99997Z" fill="black"/>
<path d="M54.5 6.99997C56.433 6.99997 58 5.43297 58 3.49997C58 1.56697 56.433 -3.05176e-05 54.5 -3.05176e-05C52.567 -3.05176e-05 51 1.56697 51 3.49997C51 5.43297 52.567 6.99997 54.5 6.99997Z" fill="black"/>
</svg>
