<svg width="217" height="216" viewBox="0 0 217 216" fill="none" xmlns="http://www.w3.org/2000/svg">
<g clip-path="url(#clip0_91_302)">
<path d="M26.022 69.7684L85.2586 196.303L159.071 161.748L174.549 112.429L131.468 20.4043L26.022 69.7684ZM151.766 146.141L141.795 124.841L161.32 115.7L151.766 146.141ZM157.945 104.425L126.313 119.234L143.59 156.14L90.8665 180.822L41.5024 75.3764L125.859 35.8853L157.945 104.425Z" fill="#AF3F23"/>
<path d="M56.9842 80.9838L120.252 51.3652L125.188 61.9093L61.9204 91.5279L56.9842 80.9838ZM66.8573 102.074L119.58 77.3918L124.516 87.936L71.7935 112.618L66.8573 102.074ZM76.7297 123.162L108.364 108.353L113.3 118.897L81.6659 133.706L76.7297 123.162Z" fill="#AF3F23"/>
</g>
<defs>
<clipPath id="clip0_91_302">
<rect width="163" height="163" fill="white" transform="translate(0 69.1096) rotate(-25.0865)"/>
</clipPath>
</defs>
</svg>
