<svg width="161" height="161" viewBox="0 0 161 161" fill="none" xmlns="http://www.w3.org/2000/svg">
<g clip-path="url(#clip0_91_308)">
<path fill-rule="evenodd" clip-rule="evenodd" d="M20.8442 140.076L35.2406 150.941C39.2131 153.943 44.8791 153.159 47.8912 149.19L63.3753 121.333C65.6813 116.664 65.6019 111.72 61.6294 108.718L52.8156 102.066C57.4917 93.5796 63.2233 84.2389 69.9109 75.429C77.474 65.4675 86.1317 56.1654 94.0014 48.4193L102.519 54.8427C106.492 57.8454 111.285 56.5817 115.17 53.0919L137.852 30.6674C141.69 27.1573 140.083 21.0542 136.106 18.0521L121.711 7.1917C113.757 1.18749 104.98 4.67786 96.4095 10.6932C96.4095 10.6932 70.6474 30.1886 50.0392 57.339C30.6549 82.8776 17.3525 114.845 17.3525 114.845C15.1027 125.294 12.891 134.076 20.8442 140.076Z" fill="#AF3F23"/>
</g>
<defs>
<clipPath id="clip0_91_308">
<rect width="142" height="142" fill="white" transform="translate(160.126 140.659) rotate(172.121)"/>
</clipPath>
</defs>
</svg>
