<?xml version="1.0" encoding="UTF-8" standalone="no"?>
<svg
   width="56"
   height="59"
   viewBox="0 0 56 59"
   fill="none"
   version="1.1"
   id="svg1"
   sodipodi:docname="pound-icon.svg"
   inkscape:version="1.3.2 (091e20e, 2023-11-25)"
   xmlns:inkscape="http://www.inkscape.org/namespaces/inkscape"
   xmlns:sodipodi="http://sodipodi.sourceforge.net/DTD/sodipodi-0.dtd"
   xmlns="http://www.w3.org/2000/svg"
   xmlns:svg="http://www.w3.org/2000/svg">
  <defs
     id="defs1" />
  <sodipodi:namedview
     id="namedview1"
     pagecolor="#ffffff"
     bordercolor="#000000"
     borderopacity="0.25"
     inkscape:showpageshadow="2"
     inkscape:pageopacity="0.0"
     inkscape:pagecheckerboard="0"
     inkscape:deskcolor="#d1d1d1"
     inkscape:zoom="7.9445417"
     inkscape:cx="27.943714"
     inkscape:cy="33.167426"
     inkscape:window-width="1440"
     inkscape:window-height="770"
     inkscape:window-x="0"
     inkscape:window-y="25"
     inkscape:window-maximized="0"
     inkscape:current-layer="svg1" />
  <path
     id="path1"
     style="stroke:#0eca33;stroke-opacity:1;fill:#086219;fill-opacity:1;stroke-linejoin:round"
     d="M 32.615234 4.2128906 C 29.933494 4.2304839 27.490104 4.7846529 25.285156 5.875 C 23.08002 6.950148 21.340383 8.5437366 20.066406 10.658203 C 18.807457 12.757458 18.242839 15.344904 18.369141 18.419922 L 18.6875 26.212891 L 13.714844 26.246094 L 13.759766 33.132812 L 18.96875 33.097656 L 19.179688 38.255859 C 19.215495 39.088986 19.169371 39.967391 19.039062 40.892578 C 18.90865 41.802504 18.649333 42.592455 18.259766 43.261719 C 17.870536 43.930401 17.305257 44.320312 16.564453 44.431641 C 16.563808 44.431738 16.563145 44.431544 16.5625 44.431641 L 13.994141 44.449219 L 14.041016 51.517578 L 46.857422 51.300781 L 46.810547 44.232422 L 25.615234 44.373047 C 25.959505 43.963445 26.253356 43.532321 26.484375 43.072266 C 27.232263 41.597642 27.555369 39.852408 27.451172 37.837891 L 27.240234 33.044922 L 37.464844 32.976562 L 37.419922 26.089844 L 26.9375 26.158203 L 26.595703 18.365234 C 26.584961 16.728923 26.8629 15.378797 27.431641 14.314453 C 28.015562 13.249943 28.78317 12.457017 29.734375 11.935547 C 30.70064 11.414071 31.743964 11.149978 32.865234 11.142578 C 33.956061 11.135423 34.980173 11.339922 35.9375 11.757812 C 36.909803 12.160577 37.673339 12.808867 38.224609 13.699219 C 38.791056 14.574345 39.024764 15.700582 38.927734 17.080078 L 46.818359 17.6875 C 47.018038 15.792205 46.816473 14.028897 46.214844 12.396484 C 45.628272 10.763903 44.703256 9.3298536 43.4375 8.0957031 C 42.186956 6.8615119 40.642581 5.9017057 38.804688 5.2167969 C 36.981927 4.5317869 34.918225 4.1977396 32.615234 4.2128906 z " />
</svg>
