<svg width="56" height="59" viewBox="0 0 56 59" fill="none" xmlns="http://www.w3.org/2000/svg">
<path d="M55.2914 38.6849L29.2653 58.6769L24.9596 53.0715L50.9856 33.0796L55.2914 38.6849ZM36.7373 29.7525L17.9387 44.1927L13.7437 38.7316L32.5423 24.2914L36.7373 29.7525ZM19.2503 24.6718L31.6921 39.6749C32.9918 41.2176 33.7889 42.8025 34.0834 44.4295C34.3807 46.0353 34.0705 47.7829 33.1528 49.6724L26.9962 51.5071C27.5204 50.9707 27.7356 50.3182 27.6419 49.5495C27.5482 48.7808 27.2785 47.9945 26.8329 47.1905C26.378 46.3744 25.8847 45.6452 25.353 45.0028L12.7258 29.6836C10.768 27.309 9.65691 24.905 9.3925 22.4715C9.13088 20.0168 9.55417 17.6951 10.6624 15.5064C11.7613 13.3057 13.3742 11.3885 15.501 9.75486C17.3274 8.35191 19.1738 7.37301 21.0403 6.81814C22.9188 6.25405 24.7291 6.08622 26.4712 6.31465C28.2254 6.53386 29.8291 7.11695 31.2826 8.06391C32.748 9.00164 33.9735 10.2861 34.959 11.9173L28.3033 16.1988C27.5475 15.0407 26.6797 14.284 25.6997 13.9286C24.7226 13.5519 23.7249 13.4968 22.7067 13.763C21.6913 14.0081 20.751 14.4629 19.8859 15.1274C18.9967 15.8105 18.3246 16.6516 17.8694 17.6508C17.4262 18.6409 17.2933 19.7364 17.4708 20.9375C17.6603 22.1293 18.2535 23.3741 19.2503 24.6718Z" fill="#086219"/>
</svg>
