<svg width="41" height="35" viewBox="0 0 41 35" fill="none" xmlns="http://www.w3.org/2000/svg">
<path fill-rule="evenodd" clip-rule="evenodd" d="M20.6993 0.61853C20.4222 1.3051 20.0051 2.11566 19.7113 2.6616C19.4015 3.22254 19.1877 3.73547 19.1901 4.20161C19.1925 4.59032 19.4137 5.02343 19.6027 5.38054C19.6932 5.54645 19.7829 5.71971 19.8695 5.89748C19.3731 5.32468 18.8254 4.98303 17.7429 4.99014C16.8694 4.99567 16.1863 5.80842 16.1918 6.67829C16.1966 7.54973 16.7646 8.47697 17.3753 8.83092C17.369 7.80541 17.7868 7.1653 18.9264 7.15819C19.6451 7.15424 20.2664 8.02223 19.1467 9.6395C20.3697 9.34323 21.0564 9.38826 22.2349 9.6395C21.1765 8.111 21.8034 7.15424 22.5218 7.15819C23.6623 7.1653 24.0793 7.80541 24.0729 8.83092C24.6844 8.47697 25.2532 7.54973 25.2595 6.67829C25.2643 5.80842 24.5812 4.99567 23.7069 4.99014C22.6379 4.98224 22.0882 5.3173 21.5974 5.87588C21.6792 5.70206 21.7676 5.53253 21.8533 5.3682C22.0384 5.00951 22.2543 4.57256 22.252 4.18464C22.2496 3.7185 22.0275 3.20704 21.7122 2.64925C21.412 2.10727 20.9844 1.30115 20.6993 0.61853ZM20.6326 10.5931C15.1648 10.5931 10.7336 14.9506 10.7336 20.327C10.7336 25.7011 15.1648 30.0609 20.6326 30.0609C22.2084 30.0609 23.6967 29.6958 25.0191 29.0517C26.5054 29.6016 28.7413 30.4082 29.6336 30.7213C35.1244 32.6486 36.9706 29.1594 36.7376 27.4839V27.4824C36.5297 26.0056 35.2605 24.731 33.8029 24.731C33.1509 24.731 32.465 24.9306 31.9726 25.2696C31.6073 25.5477 31.3631 25.9127 31.3631 26.3899C31.3628 26.6082 31.4277 26.8216 31.5495 27.0032C31.6713 27.1848 31.8446 27.3264 32.0473 27.4099C32.25 27.4935 32.4731 27.5154 32.6883 27.4727C32.9035 27.4301 33.1011 27.3248 33.2562 27.1704C33.4112 27.0159 33.5167 26.8191 33.5593 26.605C33.6019 26.3908 33.5796 26.1689 33.4953 25.9673C33.411 25.7658 33.2685 25.5936 33.0858 25.4727C32.9031 25.3518 32.6884 25.2876 32.469 25.2881C32.4666 25.228 32.9223 25.0597 33.3702 25.0597C34.5662 25.0597 35.805 26.1633 35.1601 27.8975C34.2802 30.2645 31.8566 29.705 31.1164 29.4529C30.5192 29.2504 28.3802 28.4465 26.8634 27.8867C29.1006 26.1018 30.5317 23.3794 30.5317 20.327C30.5317 14.9506 26.1004 10.5931 20.6326 10.5931ZM20.7148 11.2783C24.7698 11.2783 28.0577 15.3104 28.0577 20.2823C28.0577 23.1647 26.9485 25.7234 25.2301 27.3713C22.736 26.4704 22.135 26.2695 20.7955 25.9933C17.7567 25.3659 16.5737 26.4618 16.1158 27.2941C14.4448 25.6438 13.3735 23.1184 13.3735 20.2823C13.3735 15.3104 16.6607 11.2783 20.7148 11.2783ZM0 11.2937L3.65437 25.7834C3.65437 25.7834 3.94316 23.9841 6.28037 23.5274C8.9543 23.0052 10.3396 25.0952 10.3396 25.0952C8.72346 15.8727 3.90255 22.4272 3.90255 22.4272C7.16415 16.3294 0 11.2937 0 11.2937ZM41 11.2937C41 11.2937 33.8358 16.3294 37.0975 22.4272C37.0975 22.4272 32.2765 15.8727 30.6604 25.0952C30.6604 25.0952 32.0457 23.0052 34.7196 23.5274C37.056 23.9841 37.3456 25.7834 37.3456 25.7834L41 11.2937ZM7.23274 24.5875C5.77546 24.5875 4.50456 25.863 4.29807 27.3404C4.063 29.0154 5.90968 32.5079 11.4021 30.5794C12.452 30.2104 13.4395 29.8895 14.7261 29.402C14.2249 29.1168 13.5623 28.5643 13.085 28.1598C11.8191 28.6117 10.6491 29.0621 9.91768 29.311C9.17673 29.5622 6.75391 30.1225 5.87398 27.7571C5.22913 26.0221 6.46949 24.9177 7.66549 24.9177C8.1134 24.9177 8.56827 25.0877 8.56668 25.1461C8.34731 25.1456 8.13271 25.2098 7.95005 25.3307C7.76738 25.4515 7.62486 25.6236 7.54052 25.825C7.45619 26.0265 7.43382 26.2483 7.47626 26.4624C7.5187 26.6765 7.62403 26.8733 7.77893 27.0279C7.93383 27.1824 8.13133 27.2877 8.34644 27.3306C8.56154 27.3734 8.78458 27.3517 8.98733 27.2684C9.19007 27.1851 9.3634 27.0438 9.48539 26.8624C9.60738 26.681 9.67253 26.4677 9.67261 26.2494C9.67261 25.7715 9.42755 25.4057 9.06303 25.1291C8.57065 24.7894 7.88395 24.5875 7.23274 24.5875ZM18.2688 27.0179C18.5737 27.0082 18.916 27.0204 19.3002 27.0596C20.4713 27.177 21.2712 27.5106 23.6929 28.507C22.7821 29.0036 21.7759 29.2847 20.7148 29.2847C19.089 29.2847 17.5914 28.6291 16.3749 27.5318C16.7334 27.2863 17.3152 27.0484 18.2688 27.0179ZM7.55071 31.9867C6.3023 31.9867 5.46087 32.6145 5.68165 33.3817C5.90084 34.1488 7.10043 34.7009 8.34487 34.6084L18.4549 33.8569C19.7009 33.7645 21.7372 33.7645 22.9841 33.8569L33.1515 34.6084C34.3967 34.7009 35.5939 34.148 35.8163 33.3817C36.0362 32.6145 35.1941 31.9867 33.9456 31.9867H7.55071Z" fill="#CCCCCC"/>
</svg>
