<svg width="400" height="254" viewBox="0 0 400 254" fill="none" xmlns="http://www.w3.org/2000/svg">
<path d="M207.3 33.6476L223.475 59.1697L321.635 83.8087L326.03 71.4892L330.424 59.1697L235.975 24.1246L207.3 33.6476Z" fill="#0079B0"/>
<path d="M103.406 223.281L137.051 241.333L212.759 67.5484L207.3 33.6475L175.792 47.2938L70.0846 204.641L103.406 223.281Z" fill="#0079B0"/>
<path d="M206.411 63.2949C222.784 63.2949 236.057 50.0213 236.057 33.6475C236.057 17.2736 222.784 4 206.411 4C190.038 4 176.766 17.2736 176.766 33.6475C176.766 50.0213 190.038 63.2949 206.411 63.2949Z" fill="#0079B0" stroke="#32BDFE" stroke-width="7.55905" stroke-miterlimit="3"/>
<path d="M202.813 272.987H4C4.00001 218.084 48.5058 173.576 103.406 173.576C158.307 173.576 202.813 218.084 202.813 272.987Z" fill="#0079B0" stroke="#32BDFE" stroke-width="7.55905" stroke-miterlimit="3"/>
<path d="M364.882 47.3266C354.169 43.5542 342.431 49.1791 338.658 59.8926L333.361 74.9393L328.066 89.9777C324.293 100.691 329.918 112.43 340.631 116.202L375.749 128.569C375.749 128.569 379.277 115.368 368.798 111.522C363.879 109.717 355.412 105.834 349.737 103.166C346.509 101.648 344.864 97.6625 346.05 94.294L350.713 81.0496L355.379 67.7969C356.565 64.4284 360.344 62.3531 363.811 63.1927C369.906 64.6691 378.938 66.9473 383.903 68.6228C394.479 72.1921 400 59.6927 400 59.6927L364.882 47.3266Z" fill="#0079B0"/>
</svg>
