<?xml version="1.0" encoding="UTF-8" standalone="no"?>
<svg
   width="166"
   height="154"
   viewBox="0 0 166 154"
   fill="none"
   version="1.1"
   id="svg4"
   sodipodi:docname="waving-dolla-bills.svg"
   inkscape:version="1.3.2 (091e20e, 2023-11-25)"
   xmlns:inkscape="http://www.inkscape.org/namespaces/inkscape"
   xmlns:sodipodi="http://sodipodi.sourceforge.net/DTD/sodipodi-0.dtd"
   xmlns="http://www.w3.org/2000/svg"
   xmlns:svg="http://www.w3.org/2000/svg">
  <sodipodi:namedview
     id="namedview4"
     pagecolor="#ffffff"
     bordercolor="#000000"
     borderopacity="0.25"
     inkscape:showpageshadow="2"
     inkscape:pageopacity="0.0"
     inkscape:pagecheckerboard="0"
     inkscape:deskcolor="#d1d1d1"
     inkscape:zoom="3.2905657"
     inkscape:cx="104.8452"
     inkscape:cy="75.215031"
     inkscape:window-width="1440"
     inkscape:window-height="770"
     inkscape:window-x="0"
     inkscape:window-y="25"
     inkscape:window-maximized="0"
     inkscape:current-layer="svg4" />
  <path
     d="M 29.305497,133.916 C 77.6764,154.359 98.9918,88.8804 141.007,89.1098 c 6.68441,-5.787494 7.27907,-5.787494 13.847,-9.2917 C 148.522,59.709 142.19,39.5993 135.856,19.4827 87.4849,-0.960361 66.1695,64.5179 24.1539,64.2885 c -8.46831,7.60927 -6.885566,5.417714 -13.8479,9.288 1.973871,6.268667 18.999497,60.3395 18.999497,60.3395 z"
     fill="#086219"
     id="path5"
     style="fill:#0eca33;fill-opacity:1;stroke:#0eca33;stroke-width:5;stroke-linejoin:round;stroke-dasharray:none;stroke-opacity:1"
     sodipodi:nodetypes="ccccccc" />
  <path
     d="m 17.5545,69.9416 c 0.3472,1.1028 0.6947,2.2063 1.042,3.3092 C 62.0693,82.5931 83.25,21.091 125.24,25.7081 c 5.984,19.0062 11.97,38.0162 17.956,57.0262 1.443,0.1601 2.92,0.3958 4.423,0.7186 C 141.288,63.3476 134.954,43.2303 128.621,23.1175 83.6358,13.4552 62.527,79.6072 17.5545,69.9416 Z"
     fill="#086219"
     id="path1"
     style="display:inline" />
  <path
     d="m 24.1539,64.2885 c 0.3472,1.1028 0.6947,2.2063 1.042,3.3092 40.6072,0.2237 61.8875,-60.95942 106.9561,-46.5651 5.984,19.0062 11.97,38.0162 17.956,57.0262 1.552,0.4926 3.136,1.0825 4.746,1.7593 C 148.522,59.709 142.19,39.5993 135.856,19.4827 87.4849,-0.960361 66.1695,64.5179 24.1539,64.2885 Z"
     fill="#086219"
     id="path2"
     style="display:inline" />
  <path
     d="M 10.306,73.5765 C 16.6391,93.6893 22.9712,113.799 29.3055,133.916 77.6764,154.359 98.9918,88.8804 141.007,89.1098 134.674,68.997 128.341,48.8835 122.009,28.7745 79.9933,28.5444 58.677,94.0195 10.306,73.5765 Z m 74.7534,37.6495 c -12.2327,10.689 -26.5148,5.512 -30.4476,-6.978 -3.824,-12.1446 4.1688,-26.9415 16.4014,-37.6304 12.2535,-10.6381 25.5399,-8.6232 29.4878,3.915 3.825,12.1029 -3.1738,30.0554 -15.4416,40.6934 z"
     fill="#086219"
     id="path3"
     sodipodi:nodetypes="cccccccccc"
     style="display:inline" />
  <path
     d="m 84.9763,82.5718 c -1.3067,0.1682 -3.5826,1.1364 -6.8548,2.8184 -0.9923,-3.1513 -1.9846,-6.3027 -2.9771,-9.4547 1.8112,-1.4321 3.3219,-1.858 4.5472,-1.2424 0.6619,0.3361 1.1958,0.9593 1.5917,1.87 1.1354,-0.9678 2.2621,-1.9328 3.3943,-2.8954 -0.7635,-2.1391 -2.0381,-3.2879 -3.8332,-3.449 -1.7906,-0.1618 -4.0036,0.7783 -6.6345,2.7491 -0.267,-0.8482 -0.5327,-1.692 -0.7998,-2.5402 -0.6174,0.5157 -1.2307,1.0268 -1.8517,1.5312 0.2705,0.8589 0.5411,1.7184 0.8127,2.5811 -2.6035,2.1764 -4.412,4.5683 -5.3981,7.2624 -0.9809,2.6801 -1.1699,4.9787 -0.5508,6.9449 0.6923,2.1988 1.9306,3.4295 3.6905,3.6459 1.7614,0.2208 4.1607,-0.5222 7.1514,-2.314 1.1081,3.5192 2.2198,7.0497 3.3303,10.5769 -2.262,1.632 -4.0368,1.988 -5.3222,1.164 -0.7269,-0.452 -1.4216,-1.528 -2.0837,-3.2204 -1.1744,0.8895 -2.346,1.7574 -3.5382,2.5904 0.7017,2.228 1.6384,3.723 2.8124,4.479 2.148,1.419 5.1923,0.806 9.0583,-2.068 0.3946,1.253 0.7915,2.514 1.1861,3.767 0.6198,-0.508 1.2331,-1.019 1.8505,-1.535 -0.3946,-1.253 -0.7903,-2.51 -1.1849,-3.763 2.2624,-2.218 3.8846,-4.2831 4.8716,-6.1447 1.7834,-3.3619 2.1304,-6.7574 1.0471,-10.198 -0.7566,-2.3748 -2.1864,-3.4298 -4.3151,-3.1555 z m -8.8211,3.9856 C 74.608,87.4696 73.286,87.89 72.1862,87.8528 71.084,87.808 70.3349,87.1364 69.931,85.8537 c -0.3344,-1.0619 -0.2809,-2.3566 0.1448,-3.9012 0.4307,-1.5462 1.5084,-3.0438 3.2065,-4.5191 0.9592,3.0464 1.916,6.0852 2.8729,9.124 z m 10.1372,6.3666 c -0.3628,2.2298 -1.6309,4.3444 -3.8143,6.3021 -1.0715,-3.4028 -2.1406,-6.7982 -3.2144,-10.2086 1.7623,-0.9094 3.0493,-1.4259 3.8945,-1.5193 1.4483,-0.1713 2.4392,0.5471 2.9496,2.1681 0.3215,1.0211 0.3786,2.1082 0.1846,3.2577 z"
     fill="#086219"
     id="path4"
     style="display:inline" />
  <defs
     id="defs4">
    <clipPath
       id="clip0_90_272">
      <rect
         width="136"
         height="118"
         fill="white"
         transform="translate(0 40.8463) rotate(-17.4781)"
         id="rect4" />
    </clipPath>
  </defs>
</svg>
